G04*
G04 #@! TF.GenerationSoftware,Altium Limited,Altium Designer,23.6.0 (18)*
G04*
G04 Layer_Physical_Order=1*
G04 Layer_Color=255*
%FSLAX25Y25*%
%MOIN*%
G70*
G04*
G04 #@! TF.SameCoordinates,22C025B0-BAA2-4450-BC7D-CF48B3E84608*
G04*
G04*
G04 #@! TF.FilePolarity,Positive*
G04*
G01*
G75*
%ADD11C,0.01000*%
%ADD12R,0.02559X0.02756*%
%ADD13R,0.03543X0.02953*%
%ADD14R,0.02953X0.03543*%
%ADD19C,0.03620*%
%ADD20C,0.01500*%
%ADD21C,0.00500*%
%ADD22C,0.30000*%
%ADD23C,0.06000*%
%ADD24R,0.08071X0.08071*%
%ADD25C,0.08071*%
G36*
X36371Y74091D02*
X36349Y74113D01*
X36371Y74136D01*
X36394Y74113D01*
X36371Y74091D01*
D02*
G37*
G36*
X68158Y60571D02*
X68181Y60549D01*
X68158Y60526D01*
X68136Y60549D01*
X68158Y60571D01*
D02*
G37*
D11*
X101842Y53520D02*
X102000Y53362D01*
X101500Y18500D02*
X102138Y19138D01*
D12*
X107658Y61000D02*
D03*
X102342D02*
D03*
D13*
X102000Y48638D02*
D03*
Y53362D02*
D03*
D14*
X102138Y40500D02*
D03*
X106862D02*
D03*
D19*
X107658Y65504D02*
X109500Y70500D01*
X107658Y61000D02*
Y65504D01*
X102171Y61171D02*
Y70329D01*
X91500Y8500D02*
X111500D01*
X91500D02*
Y28500D01*
X111500Y8500D02*
Y28500D01*
X102171Y53534D02*
Y60829D01*
X106862Y40500D02*
Y60106D01*
X111500Y28500D02*
Y35567D01*
X106862Y40205D02*
X111500Y35567D01*
X102138Y40500D02*
Y47776D01*
Y19138D02*
Y40500D01*
D20*
X102000Y70500D02*
X102171Y70329D01*
Y61171D02*
X102342Y61000D01*
X102171Y60829D02*
X102342Y61000D01*
X102000Y53362D02*
X102171Y53534D01*
X106862Y40205D02*
Y40500D01*
D21*
X101638Y48276D02*
X102138Y47776D01*
D22*
X18000Y182000D02*
D03*
X182000D02*
D03*
X18000Y18000D02*
D03*
X182000D02*
D03*
D23*
X109500Y70500D02*
D03*
X102000D02*
D03*
D24*
X101500Y18500D02*
D03*
D25*
X91500Y8500D02*
D03*
X111500D02*
D03*
Y28500D02*
D03*
X91500D02*
D03*
M02*
